<svg xmlns="http://www.w3.org/2000/svg"  viewBox="0 0 64 64" width="64px" height="64px"><path d="M24.5,41l0.414-0.004l-0.001-0.076C25.438,40.96,25.964,41,26.5,41l0.414-0.004l-0.001-0.076 c0.193,0.015,0.388,0.02,0.582,0.029L33.26,64H37h4h0.26l-6.039-24.155C43.229,37.054,49,29.447,49,20.5C49,9.196,39.804,0,28.5,0 c-0.675,0-1.341,0.037-2,0.101V0c-0.675,0-1.341,0.037-2,0.101V0C13.196,0,4,9.196,4,20.5S13.196,41,24.5,41z M28.5,4 C37.598,4,45,11.402,45,20.5S37.598,37,28.5,37S12,29.598,12,20.5S19.402,4,28.5,4z"/></svg>