<svg xmlns="http://www.w3.org/2000/svg" xmlns:xlink="http://www.w3.org/1999/xlink" version="1.1" x="0px" y="0px" viewBox="0 0 1024 1280" style="enable-background:new 0 0 1024 1024;" xml:space="preserve"><g><rect x="103.4" y="80.4" width="40" height="863.2"/><rect x="73.4" y="873.6" width="863.2" height="40"/><path d="M395.4,475.9C395.4,475.9,395.4,475.9,395.4,475.9c-6.3,0-12.1-2.7-16.1-7.5L238.4,303c-5.3-6.2-6.5-15-3.1-22.5   c3.4-7.5,10.9-12.3,19.1-12.3h57.3V146.3c0-11.6,9.5-21.1,21.1-21.1h125.3c11.6,0,21.1,9.5,21.1,21.1v121.9h57.3   c8.5,0,16.1,5.1,19.4,13c3.1,7.5,1.7,15.9-3.6,21.9L411.5,468.4C407.5,473.1,401.7,475.9,395.4,475.9z M295.4,308.2l100,117.4   l100-117.4h-35.1c-11.6,0-21.1-9.5-21.1-21.1V165.2h-87.5v121.9c0,11.6-9.5,21.1-21.1,21.1H295.4z"/><path d="M835.9,798.8H710.6c-11.6,0-21.1-9.5-21.1-21.1V655.8h-57.3c-8.2,0-15.7-4.8-19.1-12.3c-3.4-7.5-2.2-16.3,3.1-22.5   l141-165.4c4-4.8,9.8-7.5,16.1-7.5c0,0,0,0,0,0c6.3,0,12.1,2.7,16.1,7.5L930.3,621c5.3,6.2,6.5,15.1,3.1,22.5   c-3.4,7.5-10.9,12.3-19.1,12.3H857v121.9C857,789.3,847.5,798.8,835.9,798.8z M729.5,758.8H817V636.9c0-11.6,9.5-21.1,21.1-21.1   h35.2l-100-117.4L673.2,615.8h35.2c11.6,0,21.1,9.5,21.1,21.1V758.8z"/><polygon points="351.3,749.2 211.3,547.2 130.2,576.5 116.6,538.9 226.7,499.2 352.7,681 432.5,575.7 486.5,575.7 704.4,246.2    825.6,266.6 922.3,167.1 950.9,194.9 839.6,309.6 723.4,290 508.1,615.7 452.3,615.7  "/><rect x="238.9" y="893.6" width="40" height="50"/><rect x="374.5" y="893.6" width="40" height="50"/><rect x="510" y="893.6" width="40" height="50"/><rect x="645.5" y="893.6" width="40" height="50"/><rect x="781.1" y="893.6" width="40" height="50"/><rect x="73.4" y="738.1" width="50" height="40"/><rect x="73.4" y="602.5" width="50" height="40"/><rect x="73.4" y="467" width="50" height="40"/><rect x="73.4" y="331.5" width="50" height="40"/><rect x="73.4" y="195.9" width="50" height="40"/></g><text x="0" y="1039" fill="#000000" font-size="5px" font-weight="bold" font-family="'Helvetica Neue', Helvetica, Arial-Unicode, Arial, Sans-serif">Created by IconPai</text><text x="0" y="1044" fill="#000000" font-size="5px" font-weight="bold" font-family="'Helvetica Neue', Helvetica, Arial-Unicode, Arial, Sans-serif">from the Noun Project</text></svg>